#Comment line ignore any data following # character 
#Hierarchical Translation and Rotation (.htr) file 
[Header]	
#Header keywords are followed by a single value 
FileType HTR		#Single word string
DataType HTRS		#Translation followed by rotation and scale data
FileVersion 1		#integer
NumSegments 84		#integer
NumFrames 2		#integer
DataFrameRate 30		#integer, data frame rate in this file
EulerRotationOrder ZYX
CalibrationUnits mm
RotationUnits Degrees
GlobalAxisofGravity Y
BoneLengthAxis Y
ScaleFactor 1.00
[SegmentNames&Hierarchy]
#CHILD	PARENT
MASTER GLOBAL
root MASTER
chest root
L_mid_tent01 root
R_mid_tent01 root
spine01 root
Bip01_Neck chest
L_humerus chest
R_humerus chest
weapon_bone chest
Bip01_Head Bip01_Neck
eye_left_bone Bip01_Head
eye_right_bone Bip01_Head
L_forearm L_humerus
L_front_hand L_forearm
L_weapon_bone L_forearm
L_front_hand01_01 L_front_hand
L_front_hand02_01 L_front_hand
L_front_hand03_01 L_front_hand
L_front_hand01_02 L_front_hand01_01
L_front_hand02_02 L_front_hand02_01
L_front_hand03_02 L_front_hand03_01
R_forearm R_humerus
R_front_hand R_forearm
R_weapon_bone R_forearm
R_front_hand01_01 R_front_hand
R_front_hand02_01 R_front_hand
R_front_hand03_01 R_front_hand
R_front_hand01_02 R_front_hand01_01
R_front_hand02_02 R_front_hand02_01
R_front_hand03_02 R_front_hand03_01
null_rope01_connect L_mid_tent01
Rope1_Seg01 null_rope01_connect
Rope1_Seg02 Rope1_Seg01
Rope1_Seg03 Rope1_Seg02
Rope1_Seg04 Rope1_Seg03
Rope1_Seg05 Rope1_Seg04
Rope1_Seg06 Rope1_Seg05
Rope1_Seg07 Rope1_Seg06
Rope1_Seg09 Rope1_Seg07
L_mid_hand01 Rope1_Seg09
L_mid_hand02 Rope1_Seg09
L_mid_hand03 Rope1_Seg09
null_rope02_connect R_mid_tent01
Rope2_Seg01 null_rope02_connect
Rope2_Seg02 Rope2_Seg01
Rope2_Seg03 Rope2_Seg02
Rope2_Seg04 Rope2_Seg03
Rope2_Seg05 Rope2_Seg04
Rope2_Seg06 Rope2_Seg05
Rope2_Seg07 Rope2_Seg06
Rope2_Seg09 Rope2_Seg07
R_mid_hand01 Rope2_Seg09
R_mid_hand02 Rope2_Seg09
R_mid_hand03 Rope2_Seg09
spine02 spine01
spine03 spine02
pelvis spine03
null_rope03_connect pelvis
null_rope04_connect pelvis
Rope3_Seg01 null_rope03_connect
Rope3_Seg02 Rope3_Seg01
Rope3_Seg03 Rope3_Seg02
Rope3_Seg04 Rope3_Seg03
Rope3_Seg05 Rope3_Seg04
Rope3_Seg06 Rope3_Seg05
Rope3_Seg07 Rope3_Seg06
Rope3_Seg08 Rope3_Seg07
Rope3_Seg09 Rope3_Seg08
R_rear_hand01 Rope3_Seg09
R_rear_hand02 Rope3_Seg09
R_rear_hand03 Rope3_Seg09
Rope4_Seg01 null_rope04_connect
Rope4_Seg02 Rope4_Seg01
Rope4_Seg03 Rope4_Seg02
Rope4_Seg04 Rope4_Seg03
Rope4_Seg05 Rope4_Seg04
Rope4_Seg06 Rope4_Seg05
Rope4_Seg07 Rope4_Seg06
Rope4_Seg08 Rope4_Seg07
Rope4_Seg09 Rope4_Seg08
L_rear_hand01 Rope4_Seg09
L_rear_hand02 Rope4_Seg09
L_rear_hand03 Rope4_Seg09
[BasePosition]
#SegmentName Tx, Ty, Tz, Rx, Ry, Rz, BoneLength
MASTER 0.000000 0.000000 0.000000 -90.000000 0.000000 0.000000 10.000000 
root 0.000000 0.000000 0.000000 0.000000 0.000000 0.000000 10.000000 
chest 0.000000 0.000000 0.000000 0.000000 0.000000 0.000000 10.000000 
L_mid_tent01 0.000000 0.000000 0.000000 0.000000 0.000000 0.000000 10.000000 
R_mid_tent01 0.000000 0.000000 0.000000 0.000000 0.000000 0.000000 10.000000 
spine01 0.000000 0.000000 0.000000 0.000000 0.000000 0.000000 10.000000 
Bip01_Neck 0.000000 0.000000 0.000000 0.000000 0.000000 0.000000 10.000000 
L_humerus 0.000000 0.000000 0.000000 0.000000 0.000000 0.000000 10.000000 
R_humerus 0.000000 0.000000 0.000000 0.000000 0.000000 0.000000 10.000000 
weapon_bone 0.000000 0.000000 0.000000 0.000000 0.000000 0.000000 10.000000 
Bip01_Head 0.000000 0.000000 0.000000 0.000000 0.000000 0.000000 10.000000 
eye_left_bone 0.000000 0.000000 0.000000 0.000000 0.000000 0.000000 10.000000 
eye_right_bone 0.000000 0.000000 0.000000 0.000000 0.000000 0.000000 10.000000 
L_forearm 0.000000 0.000000 0.000000 0.000000 0.000000 0.000000 10.000000 
L_front_hand 0.000000 0.000000 0.000000 0.000000 0.000000 0.000000 10.000000 
L_weapon_bone 0.000000 0.000000 0.000000 0.000000 0.000000 0.000000 10.000000 
L_front_hand01_01 0.000000 0.000000 0.000000 0.000000 0.000000 0.000000 10.000000 
L_front_hand02_01 0.000000 0.000000 0.000000 0.000000 0.000000 0.000000 10.000000 
L_front_hand03_01 0.000000 0.000000 0.000000 0.000000 0.000000 0.000000 10.000000 
L_front_hand01_02 0.000000 0.000000 0.000000 0.000000 0.000000 0.000000 10.000000 
L_front_hand02_02 0.000000 0.000000 0.000000 0.000000 0.000000 0.000000 10.000000 
L_front_hand03_02 0.000000 0.000000 0.000000 0.000000 0.000000 0.000000 10.000000 
R_forearm 0.000000 0.000000 0.000000 0.000000 0.000000 0.000000 10.000000 
R_front_hand 0.000000 0.000000 0.000000 0.000000 0.000000 0.000000 10.000000 
R_weapon_bone 0.000000 0.000000 0.000000 0.000000 0.000000 0.000000 10.000000 
R_front_hand01_01 0.000000 0.000000 0.000000 0.000000 0.000000 0.000000 10.000000 
R_front_hand02_01 0.000000 0.000000 0.000000 0.000000 0.000000 0.000000 10.000000 
R_front_hand03_01 0.000000 0.000000 0.000000 0.000000 0.000000 0.000000 10.000000 
R_front_hand01_02 0.000000 0.000000 0.000000 0.000000 0.000000 0.000000 10.000000 
R_front_hand02_02 0.000000 0.000000 0.000000 0.000000 0.000000 0.000000 10.000000 
R_front_hand03_02 0.000000 0.000000 0.000000 0.000000 0.000000 0.000000 10.000000 
null_rope01_connect 0.000000 0.000000 0.000000 0.000000 0.000000 0.000000 10.000000 
Rope1_Seg01 0.000000 0.000000 0.000000 0.000000 0.000000 0.000000 10.000000 
Rope1_Seg02 0.000000 0.000000 0.000000 0.000000 0.000000 0.000000 10.000000 
Rope1_Seg03 0.000000 0.000000 0.000000 0.000000 0.000000 0.000000 10.000000 
Rope1_Seg04 0.000000 0.000000 0.000000 0.000000 0.000000 0.000000 10.000000 
Rope1_Seg05 0.000000 0.000000 0.000000 0.000000 0.000000 0.000000 10.000000 
Rope1_Seg06 0.000000 0.000000 0.000000 0.000000 0.000000 0.000000 10.000000 
Rope1_Seg07 0.000000 0.000000 0.000000 0.000000 0.000000 0.000000 10.000000 
Rope1_Seg09 0.000000 0.000000 0.000000 0.000000 0.000000 0.000000 10.000000 
L_mid_hand01 0.000000 0.000000 0.000000 0.000000 0.000000 0.000000 10.000000 
L_mid_hand02 0.000000 0.000000 0.000000 0.000000 0.000000 0.000000 10.000000 
L_mid_hand03 0.000000 0.000000 0.000000 0.000000 0.000000 0.000000 10.000000 
null_rope02_connect 0.000000 0.000000 0.000000 0.000000 0.000000 0.000000 10.000000 
Rope2_Seg01 0.000000 0.000000 0.000000 0.000000 0.000000 0.000000 10.000000 
Rope2_Seg02 0.000000 0.000000 0.000000 0.000000 0.000000 0.000000 10.000000 
Rope2_Seg03 0.000000 0.000000 0.000000 0.000000 0.000000 0.000000 10.000000 
Rope2_Seg04 0.000000 0.000000 0.000000 0.000000 0.000000 0.000000 10.000000 
Rope2_Seg05 0.000000 0.000000 0.000000 0.000000 0.000000 0.000000 10.000000 
Rope2_Seg06 0.000000 0.000000 0.000000 0.000000 0.000000 0.000000 10.000000 
Rope2_Seg07 0.000000 0.000000 0.000000 0.000000 0.000000 0.000000 10.000000 
Rope2_Seg09 0.000000 0.000000 0.000000 0.000000 0.000000 0.000000 10.000000 
R_mid_hand01 0.000000 0.000000 0.000000 0.000000 0.000000 0.000000 10.000000 
R_mid_hand02 0.000000 0.000000 0.000000 0.000000 0.000000 0.000000 10.000000 
R_mid_hand03 0.000000 0.000000 0.000000 0.000000 0.000000 0.000000 10.000000 
spine02 0.000000 0.000000 0.000000 0.000000 0.000000 0.000000 10.000000 
spine03 0.000000 0.000000 0.000000 0.000000 0.000000 0.000000 10.000000 
pelvis 0.000000 0.000000 0.000000 0.000000 0.000000 0.000000 10.000000 
null_rope03_connect 0.000000 0.000000 0.000000 0.000000 0.000000 0.000000 10.000000 
null_rope04_connect 0.000000 0.000000 0.000000 0.000000 0.000000 0.000000 10.000000 
Rope3_Seg01 0.000000 0.000000 0.000000 0.000000 0.000000 0.000000 10.000000 
Rope3_Seg02 0.000000 0.000000 0.000000 0.000000 0.000000 0.000000 10.000000 
Rope3_Seg03 0.000000 0.000000 0.000000 0.000000 0.000000 0.000000 10.000000 
Rope3_Seg04 0.000000 0.000000 0.000000 0.000000 0.000000 0.000000 10.000000 
Rope3_Seg05 0.000000 0.000000 0.000000 0.000000 0.000000 0.000000 10.000000 
Rope3_Seg06 0.000000 0.000000 0.000000 0.000000 0.000000 0.000000 10.000000 
Rope3_Seg07 0.000000 0.000000 0.000000 0.000000 0.000000 0.000000 10.000000 
Rope3_Seg08 0.000000 0.000000 0.000000 0.000000 0.000000 0.000000 10.000000 
Rope3_Seg09 0.000000 0.000000 0.000000 0.000000 0.000000 0.000000 10.000000 
R_rear_hand01 0.000000 0.000000 0.000000 0.000000 0.000000 0.000000 10.000000 
R_rear_hand02 0.000000 0.000000 0.000000 0.000000 0.000000 0.000000 10.000000 
R_rear_hand03 0.000000 0.000000 0.000000 0.000000 0.000000 0.000000 10.000000 
Rope4_Seg01 0.000000 0.000000 0.000000 0.000000 0.000000 0.000000 10.000000 
Rope4_Seg02 0.000000 0.000000 0.000000 0.000000 0.000000 0.000000 10.000000 
Rope4_Seg03 0.000000 0.000000 0.000000 0.000000 0.000000 0.000000 10.000000 
Rope4_Seg04 0.000000 0.000000 0.000000 0.000000 0.000000 0.000000 10.000000 
Rope4_Seg05 0.000000 0.000000 0.000000 0.000000 0.000000 0.000000 10.000000 
Rope4_Seg06 0.000000 0.000000 0.000000 0.000000 0.000000 0.000000 10.000000 
Rope4_Seg07 0.000000 0.000000 0.000000 0.000000 0.000000 0.000000 10.000000 
Rope4_Seg08 0.000000 0.000000 0.000000 0.000000 0.000000 0.000000 10.000000 
Rope4_Seg09 0.000000 0.000000 0.000000 0.000000 0.000000 0.000000 10.000000 
L_rear_hand01 0.000000 0.000000 0.000000 0.000000 0.000000 0.000000 10.000000 
L_rear_hand02 0.000000 0.000000 0.000000 0.000000 0.000000 0.000000 10.000000 
L_rear_hand03 0.000000 0.000000 0.000000 0.000000 0.000000 0.000000 10.000000 
#Beginning of Data. Separated by tabs
#Fr	Tx	Ty	Tz	Rx	Ry	Rz	SF
[MASTER]
35 0.000000 0.000000 0.000000 0.001660 0.001660 0.001660 0.000000
36 0.000000 0.000000 0.000000 0.001660 0.001660 0.001660 0.000000
[root]
35 -16.502316 16.023241 1463.025635 -91.617104 -11.469041 -92.480629 1463.206543
36 -16.502314 11.143717 1452.250000 -91.710663 -11.564025 -90.307114 1452.386475
[chest]
35 -84.512650 -34.090519 0.000000 -2.167212 -0.006600 168.213089 91.129311
36 -84.512650 -34.090519 0.000000 -2.168853 -0.006518 168.226349 91.129311
[L_mid_tent01]
35 27.299116 22.179115 -249.918701 -16.819454 25.767254 27.726795 252.381683
36 27.299116 22.179110 -249.918701 -19.292252 18.844364 19.903282 252.381683
[R_mid_tent01]
35 23.228794 24.509907 226.238495 -169.987579 -16.231655 28.006983 228.744751
36 23.228794 24.509907 226.238495 -167.564926 -17.139151 25.991596 228.744751
[spine01]
35 -0.361383 -0.195265 0.000000 -0.000001 -0.000007 22.052340 0.410763
36 -0.361383 -0.195265 0.000000 -0.000001 -0.000007 22.052340 0.410763
[Bip01_Neck]
35 165.484543 71.581718 0.000119 175.896118 1.177290 24.871183 180.302734
36 165.484543 71.581718 0.000119 175.896118 1.177290 24.871183 180.302734
[L_humerus]
35 -13.983130 -135.272980 -120.471481 168.709030 57.981640 -100.067024 181.680161
36 -13.983130 -135.272980 -120.471481 159.097229 77.997345 -110.369423 181.680161
[R_humerus]
35 -13.983309 -135.273102 125.287651 34.481876 -77.011635 61.381649 184.909012
36 -13.983309 -135.273102 125.287651 30.175014 -73.449287 65.552521 184.909012
[weapon_bone]
35 235.964890 -300.705902 0.000000 0.000000 -89.951546 -128.212341 382.234833
36 235.964890 -300.705902 0.000000 0.000000 -89.951546 -128.212341 382.234833
[Bip01_Head]
35 206.832901 146.763748 4.330404 2.756882 4.654215 -62.122128 253.649750
36 207.725479 145.655823 4.178494 2.789946 4.784259 -62.712196 253.737961
[eye_left_bone]
35 30.875811 155.904831 -69.822128 -129.280914 -88.777145 29.851738 173.593658
36 30.576986 155.646942 -69.568237 -129.393204 -88.792450 29.966293 173.206985
[eye_right_bone]
35 33.891644 157.239731 59.215366 50.864952 -88.780190 29.708191 171.404312
36 33.251667 156.986282 59.486523 50.628788 -88.791634 29.944298 171.140335
[L_forearm]
35 322.776093 0.000000 -0.000119 0.000129 -0.002344 -96.313080 322.776093
36 322.776093 0.000000 -0.000119 0.000266 -0.002332 -102.993759 322.776093
[L_front_hand]
35 241.149185 -0.042021 -3.300071 172.243195 -2.791298 -24.393026 241.171753
36 241.149185 -0.042021 -3.300071 177.412506 -2.304378 -25.973000 241.171753
[L_weapon_bone]
35 156.183838 0.000000 0.000000 0.000014 0.000007 0.000001 156.183838
36 156.183838 0.000000 0.000000 0.000014 0.000007 0.000001 156.183838
[L_front_hand01_01]
35 86.095154 20.947098 -0.655860 -0.366594 -0.477154 75.385574 88.609184
36 86.095154 20.947098 -0.655860 -0.366594 -0.477154 75.385582 88.609184
[L_front_hand02_01]
35 86.935165 -11.437475 24.513514 154.399796 -59.883835 -61.369587 91.046425
36 86.935165 -11.437475 24.513514 154.399796 -59.883835 -61.369587 91.046425
[L_front_hand03_01]
35 86.637497 -14.123976 -20.424902 -153.913849 58.118122 -62.702866 90.126129
36 86.637497 -14.123976 -20.424902 -153.913849 58.118122 -62.702866 90.126129
[L_front_hand01_02]
35 71.020905 -0.000179 0.000030 0.000334 -0.002323 -106.379684 71.020905
36 71.020905 -0.000179 0.000030 0.000334 -0.002323 -106.379684 71.020905
[L_front_hand02_02]
35 71.020927 -0.000119 0.000060 0.000334 -0.002323 -106.379684 71.020927
36 71.020927 -0.000119 0.000060 0.000334 -0.002323 -106.379684 71.020927
[L_front_hand03_02]
35 71.020905 -0.000060 0.000060 0.000334 -0.002323 -106.379684 71.020905
36 71.020905 -0.000060 0.000060 0.000334 -0.002323 -106.379684 71.020905
[R_forearm]
35 322.776428 -0.000060 0.000030 0.210970 0.035055 -100.751335 322.776428
36 322.776428 -0.000060 0.000030 0.208809 0.048940 -104.533630 322.776428
[R_front_hand]
35 238.847015 -0.006795 2.210259 -2.635298 -10.645461 -26.312506 238.857239
36 238.847015 -0.006795 2.210259 -2.635298 -10.645461 -26.312506 238.857239
[R_weapon_bone]
35 155.664093 0.002503 -0.000030 0.003487 0.001180 -90.988930 155.664078
36 155.664093 0.002503 -0.000030 0.003487 0.001180 -90.988930 155.664078
[R_front_hand01_01]
35 87.624611 14.231146 22.918642 -154.633499 -59.950619 61.746044 91.683487
36 87.624611 14.231146 22.918642 -154.633499 -59.950619 61.746044 91.683487
[R_front_hand02_01]
35 89.356956 14.367283 -19.491137 154.602661 58.302849 63.744389 92.579636
36 89.356956 14.367283 -19.491137 154.602661 58.302849 63.744389 92.579636
[R_front_hand03_01]
35 87.286232 -22.307278 -0.143439 0.162155 -0.423168 -75.767921 90.091743
36 87.286232 -22.307278 -0.143439 0.162155 -0.423168 -75.767921 90.091743
[R_front_hand01_02]
35 71.020905 0.000060 0.000119 0.002323 -0.000334 106.381714 71.020905
36 71.020905 0.000060 0.000119 0.002323 -0.000334 106.381714 71.020905
[R_front_hand02_02]
35 71.020844 -0.000030 -0.000119 0.002323 -0.000334 106.381714 71.020836
36 71.020844 -0.000030 -0.000119 0.002323 -0.000334 106.381714 71.020836
[R_front_hand03_02]
35 71.020905 0.000000 0.000030 0.002323 -0.000334 106.381714 71.020905
36 71.020905 0.000000 0.000030 0.002323 -0.000334 106.381714 71.020905
[null_rope01_connect]
35 328.732483 0.000000 -0.000238 -139.280807 -56.537426 -151.206848 328.732483
36 328.732483 0.000000 -0.000238 -146.401001 -61.529438 -135.076233 328.732483
[Rope1_Seg01]
35 0.000000 0.000000 0.000000 130.928497 23.641460 -146.084091 0.000000
36 0.000000 0.000000 0.000000 68.689789 8.378459 -126.606140 0.000000
[Rope1_Seg02]
35 139.999863 -0.000179 0.000000 29.137468 -3.451361 -11.441356 139.999863
36 139.999863 -0.000179 0.000000 -15.599234 6.532369 -2.694022 139.999863
[Rope1_Seg03]
35 139.999924 0.000060 -0.000060 33.922676 -12.497765 -8.763915 139.999924
36 139.999924 0.000060 -0.000060 -39.091988 7.285151 -2.971432 139.999924
[Rope1_Seg04]
35 139.999924 -0.000060 -0.000119 20.133738 -17.065353 -2.475939 139.999924
36 139.999924 -0.000060 -0.000119 -63.469234 7.842300 6.188114 139.999924
[Rope1_Seg05]
35 139.999832 0.000119 -0.000060 26.883446 -19.427063 -13.780753 139.999832
36 139.999832 0.000119 -0.000060 7.563529 -10.621001 6.879261 139.999832
[Rope1_Seg06]
35 139.999954 0.000119 -0.000060 8.996999 -12.890297 -2.434539 139.999954
36 139.999954 0.000119 -0.000060 0.605670 -4.108018 4.004240 139.999954
[Rope1_Seg07]
35 139.999985 0.000060 0.000000 2.903767 -6.526678 0.366304 139.999985
36 139.999985 0.000060 0.000000 -0.050033 -2.178923 2.456297 139.999985
[Rope1_Seg09]
35 121.602913 0.000119 -0.000089 63.728260 -2.003405 -0.132862 121.602913
36 121.602913 0.000119 -0.000089 33.320862 -1.228972 1.007246 121.602913
[L_mid_hand01]
35 103.859421 1.038730 8.195221 106.250214 -27.610226 -8.223006 104.187431
36 103.859421 1.038730 8.195221 105.751511 -24.022335 -7.082335 104.187431
[L_mid_hand02]
35 105.572853 -4.139662 -10.864139 -140.972229 23.403217 -25.511101 106.211075
36 105.572853 -4.139662 -10.864139 -139.796494 21.023321 -22.406706 106.211075
[L_mid_hand03]
35 104.641464 17.579376 -3.913581 -16.709379 8.665539 30.549070 106.179977
36 104.641464 17.579376 -3.913581 -17.221224 7.574747 26.939224 106.179977
[null_rope02_connect]
35 328.732849 0.000179 -0.000119 -142.529022 74.001579 -34.706253 328.732849
36 328.732849 0.000179 -0.000119 -139.711792 70.639320 -33.295887 328.732849
[Rope2_Seg01]
35 0.000095 0.000153 0.000072 38.144085 2.559752 -46.776112 0.000194
36 0.000095 0.000153 0.000074 35.440060 5.024002 -45.436764 0.000195
[Rope2_Seg02]
35 139.999741 -0.000060 -0.000119 35.215103 -2.240590 -10.524687 139.999756
36 139.999741 -0.000060 -0.000119 39.711227 -2.973940 -10.318645 139.999756
[Rope2_Seg03]
35 140.000107 0.000030 0.000000 27.523142 -0.886600 -8.532857 140.000107
36 140.000107 0.000030 0.000000 28.216539 -1.859792 -8.080747 140.000107
[Rope2_Seg04]
35 139.999802 0.000000 -0.000060 4.121992 -7.394506 1.292449 139.999802
36 139.999802 0.000000 -0.000060 -0.414480 -7.561634 3.518995 139.999802
[Rope2_Seg05]
35 139.999985 -0.000060 0.000119 -12.551019 -11.218019 14.889149 139.999985
36 139.999985 -0.000060 0.000119 -12.673080 -9.366018 14.047557 139.999985
[Rope2_Seg06]
35 139.999893 -0.000030 -0.000119 -3.218186 -8.001292 7.035516 139.999893
36 139.999893 -0.000030 -0.000119 -2.979453 -6.161376 5.807518 139.999893
[Rope2_Seg07]
35 139.999893 0.000060 -0.000060 -0.848680 -4.281372 3.013177 139.999893
36 139.999893 0.000060 -0.000060 -0.917914 -3.416101 2.622025 139.999893
[Rope2_Seg09]
35 121.338966 0.000089 -0.000060 33.793236 -1.359788 -0.847141 121.338966
36 121.338966 0.000089 -0.000060 33.793236 -1.359788 -0.847141 121.338966
[R_mid_hand01]
35 104.680779 11.144459 -10.335981 -44.145947 19.560663 21.759447 105.778534
36 104.680779 11.144459 -10.335981 -44.145947 19.560663 21.759447 105.778534
[R_mid_hand02]
35 104.070427 2.443552 8.231699 74.186180 -24.483591 7.232481 104.424065
36 104.070427 2.443552 8.231699 74.186180 -24.483591 7.232481 104.424065
[R_mid_hand03]
35 106.028137 -11.221827 -5.996406 -166.520828 8.347037 -28.494413 106.788818
36 106.028137 -11.221827 -5.996406 -166.520828 8.347037 -28.494413 106.788818
[spine02]
35 129.756927 0.001550 0.000119 0.403870 -4.040237 -13.599117 129.756927
36 129.756927 0.001550 0.000119 0.381972 -4.042583 -13.257088 129.756927
[spine03]
35 78.614067 0.081635 -4.899015 1.614980 3.956998 12.359895 78.766602
36 78.614067 0.081635 -4.899015 1.763690 3.897023 14.471936 78.766602
[pelvis]
35 169.435242 0.051022 0.000000 -0.060512 -0.180209 14.117828 169.435257
36 169.435242 0.051022 0.000000 -0.060473 -0.180223 14.092912 169.435257
[null_rope03_connect]
35 -1.257226 -2.466202 137.391083 -98.832535 -87.241814 165.388901 137.418976
36 -1.257226 -2.466202 137.391083 -132.453384 -89.212173 -163.341507 137.418976
[null_rope04_connect]
35 -1.259640 -2.480268 -137.844437 -98.832535 -87.241814 165.388901 137.872513
36 -1.259640 -2.480268 -137.844437 -132.453384 -89.212173 -163.341507 137.872513
[Rope3_Seg01]
35 0.000010 0.000002 -0.000008 -134.807068 33.387039 -80.834831 0.000013
36 0.000010 0.000001 -0.000004 -135.681061 35.800621 -81.539459 0.000010
[Rope3_Seg02]
35 139.999924 -0.000119 0.000060 0.683289 2.796653 -1.668746 139.999924
36 139.999924 -0.000119 0.000060 0.840637 2.785841 -3.149521 139.999924
[Rope3_Seg03]
35 139.999924 -0.000119 0.000119 0.922898 3.944906 -2.426311 139.999924
36 139.999924 -0.000119 0.000119 0.961873 3.886455 -4.539536 139.999924
[Rope3_Seg04]
35 139.999924 0.000119 0.000000 1.777797 11.179977 -9.497355 139.999924
36 139.999924 0.000119 0.000000 0.488226 9.696084 -14.419209 139.999924
[Rope3_Seg05]
35 139.999924 -0.000238 0.000060 0.131738 1.616146 2.907207 139.999924
36 139.999924 -0.000238 0.000060 0.290487 2.939062 0.266362 139.999924
[Rope3_Seg06]
35 139.999893 -0.000119 -0.000060 -5.675565 -10.143286 14.639869 139.999893
36 139.999893 -0.000119 -0.000060 -3.011582 -6.682453 16.352480 139.999893
[Rope3_Seg07]
35 139.999771 0.000060 -0.000119 -1.532251 -3.268142 4.643437 139.999771
36 139.999771 0.000060 -0.000119 -0.768872 -1.812024 4.892466 139.999771
[Rope3_Seg08]
35 139.999985 -0.000060 0.000000 -0.679189 -1.902653 2.565525 139.999985
36 139.999985 -0.000060 0.000000 -0.264980 -1.026030 2.704743 139.999985
[Rope3_Seg09]
35 90.185997 -0.000179 -0.000060 36.765835 -1.358874 -0.845962 90.185997
36 90.185997 -0.000179 -0.000060 63.773136 -1.357520 -0.848429 90.185997
[R_rear_hand01]
35 103.366196 -6.073594 -10.757982 -160.019470 14.769054 -24.439312 104.101845
36 103.366196 -6.073594 -10.757982 -160.019470 14.769054 -24.439312 104.101845
[R_rear_hand02]
35 100.509819 12.039542 -7.992327 -35.779446 15.980558 23.927948 101.543350
36 100.509819 12.039542 -7.992327 -35.779446 15.980558 23.927948 101.543350
[R_rear_hand03]
35 101.539970 5.215704 5.435467 83.711815 -25.208061 6.550417 101.819031
36 101.539970 5.215704 5.435467 83.711815 -25.208061 6.550417 101.819031
[Rope4_Seg01]
35 0.000010 0.000038 -0.000114 43.918251 29.612268 -112.181366 0.000121
36 0.000010 0.000038 -0.000114 45.657074 30.550760 -108.709869 0.000121
[Rope4_Seg02]
35 139.999985 0.000060 0.000119 0.003597 -0.354794 4.166852 139.999985
36 139.999985 0.000060 0.000119 -0.166675 -0.002732 3.785802 139.999985
[Rope4_Seg03]
35 139.999924 0.000000 -0.000238 -0.221623 -0.540772 6.371159 139.999924
36 139.999924 0.000000 -0.000238 -0.435112 -0.022128 5.468831 139.999924
[Rope4_Seg04]
35 139.999985 0.000000 0.000119 -3.210757 -2.268162 22.385698 139.999985
36 139.999985 0.000000 0.000119 -3.242989 -1.477336 18.039276 139.999985
[Rope4_Seg05]
35 139.999802 -0.000060 -0.000119 1.603546 2.183084 -9.705378 139.999802
36 139.999802 -0.000060 -0.000119 1.412737 3.013262 -5.286886 139.999802
[Rope4_Seg06]
35 139.999924 0.000000 0.000060 1.413946 2.833234 -19.426504 139.999924
36 139.999924 0.000000 0.000060 2.808825 3.507150 -15.926451 139.999924
[Rope4_Seg07]
35 139.999802 0.000000 0.000000 0.214649 0.750926 -6.038540 139.999802
36 139.999802 0.000000 0.000000 0.783805 0.978768 -4.627280 139.999802
[Rope4_Seg08]
35 139.999924 0.000000 0.000119 -1.484143 0.394434 -3.293067 139.999924
36 139.999924 0.000000 0.000119 -1.122820 0.505726 -2.580358 139.999924
[Rope4_Seg09]
35 90.185791 0.000060 0.000060 -127.761642 2.229762 0.851026 90.185791
36 90.185791 0.000060 0.000060 -131.687576 2.229753 0.850169 90.185791
[L_rear_hand01]
35 101.696655 -8.392275 -7.654577 -36.144974 -15.023620 157.444031 102.329041
36 101.696655 -8.392275 -7.654577 -36.144974 -15.023620 157.444031 102.329041
[L_rear_hand02]
35 102.726799 -1.568258 5.773216 83.794235 23.585917 173.644012 102.900848
36 102.726799 -1.568258 5.773216 83.794235 23.585917 173.644012 102.900848
[L_rear_hand03]
35 104.552910 9.721220 -10.420293 -159.624359 -14.202496 -157.147644 105.519653
36 104.552910 9.721220 -10.420293 -159.624359 -14.202496 -157.147644 105.519653
